<svg id="Layer_1" data-name="Layer 1" xmlns="http://www.w3.org/2000/svg" xmlns:xlink="http://www.w3.org/1999/xlink" viewBox="0 0 267.91 267.9"><defs><style>.cls-1{fill:none;}.cls-2{clip-path:url(#clip-path);}.cls-3{fill:#2eb990;}.cls-4{fill:#26a27e;}.cls-5{fill:#fff;}</style><clipPath id="clip-path" transform="translate(-10.05 -10.05)"><rect class="cls-1" x="10.05" y="10.05" width="267.91" height="267.9"/></clipPath></defs><title>product-behavioralIQ</title><g id="Artwork_5" data-name="Artwork 5"><g class="cls-2"><g class="cls-2"><path class="cls-3" d="M278,144A134,134,0,1,1,144,10,134,134,0,0,1,278,144" transform="translate(-10.05 -10.05)"/><path class="cls-4" d="M176.25,41.26s92.49,53.79,92.57,54c28.72,85.2-16,146.81-73.19,172.56l-63.86-31.46L134,184.55l-2.42-34.48,83.86-10.93L217,108.6,196.61,66.31Z" transform="translate(-10.05 -10.05)"/><polygon class="cls-5" points="130.58 23.1 125.88 23.4 121.47 23.98 116.78 24.57 112.37 25.45 107.67 26.63 103.27 28.1 98.86 29.56 93.29 31.91 88 34.85 83.01 37.79 78.31 40.72 73.91 44.25 69.79 48.06 65.98 51.88 62.45 55.99 58.93 60.1 55.99 64.51 53.35 69.2 51 73.9 48.65 78.89 46.89 83.89 45.42 88.88 44.25 94.16 43.37 99.16 42.78 104.73 42.49 110.02 42.49 115.31 42.78 120.89 43.66 126.17 44.54 131.75 46.01 137.03 47.48 142.61 49.53 147.9 51.88 153.18 54.52 158.18 57.76 163.46 60.98 168.46 64.8 173.15 68.91 178.14 71.56 181.38 73.91 184.31 75.67 187.54 76.84 190.77 78.02 194.29 78.6 197.82 79.19 201.64 79.19 205.75 78.9 214.85 79.19 218.67 79.19 221.9 79.78 224.83 80.36 227.18 81.25 228.94 82.42 230.71 83.89 231.88 85.65 232.76 88 233.64 90.94 234.23 97.98 235.11 107.38 235.7 107.38 193.12 107.67 150.54 107.67 148.49 107.38 146.43 106.79 144.96 106.21 143.79 105.03 142.91 103.56 142.61 101.8 142.32 99.75 142.61 98.28 142.61 96.81 142.61 92.11 142.32 88.29 141.44 86.83 140.85 85.65 140.26 84.77 139.38 83.89 138.5 83.3 137.33 83.01 135.86 82.72 134.39 83.01 132.93 83.89 129.11 85.65 124.41 73.32 124.41 71.26 124.41 69.21 124.11 67.44 123.53 65.98 122.65 64.51 121.47 63.04 120.3 62.16 118.83 61.28 116.77 60.69 115.01 60.1 113.25 60.1 111.19 60.4 109.43 60.69 107.67 61.57 106.2 62.75 104.44 64.22 102.97 65.98 101.5 66.56 100.92 66.86 100.04 66.86 99.16 66.86 98.28 65.39 95.93 64.22 92.99 63.33 90.35 63.33 87.7 64.22 85.06 65.39 82.71 67.15 80.66 69.5 78.89 72.44 77.72 74.2 77.13 75.37 76.55 76.55 75.96 77.14 75.08 77.72 74.2 77.72 73.02 77.72 71.85 77.72 70.38 77.72 69.2 77.72 68.32 78.9 65.39 80.36 62.45 81.25 61.28 82.42 60.4 83.3 60.1 84.18 60.1 86.83 60.4 89.17 60.4 91.23 59.81 93.29 58.63 95.05 57.46 96.81 55.7 100.04 52.17 103.27 48.94 105.03 47.48 106.79 46.59 108.85 46.01 111.2 46.01 113.55 46.59 116.48 47.77 118.54 48.94 119.42 49.24 120.3 48.94 121.18 48.65 122.06 48.36 123.82 46.59 126.17 44.54 128.52 42.78 130.87 41.9 133.51 41.9 135.86 42.19 138.5 43.36 140.86 44.83 143.21 47.18 144.97 48.65 145.85 49.24 146.43 49.24 147.32 49.24 147.9 49.24 149.96 48.36 153.19 47.18 156.12 46.59 158.77 46.3 161.12 46.89 163.17 48.06 165.23 49.83 166.69 52.47 168.16 55.4 168.75 56.87 169.34 57.75 169.93 58.34 170.81 58.93 171.39 59.22 172.57 59.22 174.62 59.22 177.85 59.52 180.5 60.1 182.85 60.98 184.9 62.45 186.37 64.21 187.54 66.56 188.13 69.2 188.43 72.43 188.43 73.9 188.43 75.37 188.43 76.25 189.01 76.84 189.6 77.43 190.77 78.01 195.18 80.36 196.94 81.24 198.41 82.42 199.58 83.59 200.46 84.77 201.34 85.94 201.64 87.41 201.64 88.88 201.64 90.05 201.34 91.81 200.76 93.28 198.7 96.81 195.76 100.92 197.82 102.39 199.58 103.85 201.05 105.61 202.22 107.67 203.11 109.73 203.4 111.78 203.11 114.13 202.52 116.77 201.34 119.12 199.88 121.18 198.41 122.35 196.35 123.53 194.3 124.11 191.95 124.41 186.96 124.7 162.29 124.41 137.62 124.41 133.22 124.7 129.4 125 126.47 125.88 125.58 126.46 124.41 127.34 123.82 128.23 123.24 129.4 122.65 130.57 122.36 132.04 121.77 135.86 121.77 140.26 121.47 238.05 139.39 240.98 148.19 242.45 157 244.51 158.77 244.8 160.23 244.8 161.41 244.51 162.29 243.63 162.58 242.75 162.88 241.86 163.17 238.63 162.88 224.54 162.88 210.44 163.17 208.39 163.46 206.33 164.05 204.87 164.93 203.69 166.11 202.81 167.57 202.22 169.34 201.93 171.69 201.64 184.9 201.93 198.11 201.93 201.93 201.64 204.87 201.34 207.22 200.75 208.1 200.46 208.69 199.87 209.27 198.99 209.86 198.41 210.45 196.06 210.74 193.12 210.74 189.6 211.03 172.27 210.74 155.24 210.74 153.18 211.03 151.13 211.62 149.66 212.5 148.19 213.68 147.31 215.15 146.72 217.2 146.43 219.26 146.72 222.78 146.72 226.01 146.72 227.77 146.72 229.53 146.43 230.71 146.14 231.59 145.26 232.18 144.38 232.47 142.91 232.47 141.44 231.88 139.38 228.36 125.58 224.54 111.78 221.02 98.28 218.96 91.52 216.91 84.77 215.15 80.07 213.09 75.67 211.03 71.55 208.98 67.44 206.34 63.33 203.69 59.52 201.05 55.99 198.11 52.47 194.88 49.24 191.65 46.01 188.13 43.36 184.61 40.43 181.08 38.08 177.26 35.73 173.45 33.38 169.34 31.33 165.52 29.56 161.12 28.1 157 26.92 152.89 25.75 148.49 24.86 144.08 23.98 139.68 23.4 134.98 23.4 130.58 23.1"/></g></g></g></svg>